<?xml version="1.0" encoding="UTF-8" standalone="no" ?>
<!DOCTYPE svg PUBLIC "-//W3C//DTD SVG 1.1//EN" "http://www.w3.org/Graphics/SVG/1.1/DTD/svg11.dtd">
<svg xmlns="http://www.w3.org/2000/svg" xmlns:xlink="http://www.w3.org/1999/xlink" version="1.1" width="400" height="400" viewBox="0 0 400 400" xml:space="preserve">
<desc>Created with Fabric.js 3.6.2</desc>
<defs>
</defs>
<g transform="matrix(4.17 0 0 4.17 200 159.74)" id="Layer_1"  >
<path style="stroke: none; stroke-width: 1; stroke-dasharray: none; stroke-linecap: butt; stroke-dashoffset: 0; stroke-linejoin: miter; stroke-miterlimit: 4; fill: rgb(69,90,100); fill-rule: nonzero; opacity: 1;"  transform=" translate(-24, -14.34)" d="M 37.117 22.673 L 32.59 10 H 15.41 l -4.526 12.673 l -3.767 -1.346 l 5 -14 C 12.401 6.531 13.155 6 14 6 h 20 c 0.845 0 1.599 0.531 1.883 1.327 l 5 14 L 37.117 22.673 z" stroke-linecap="round" />
</g>
<g transform="matrix(4.17 0 0 4.17 200 237.5)" id="Layer_1"  >
<path style="stroke: none; stroke-width: 1; stroke-dasharray: none; stroke-linecap: butt; stroke-dashoffset: 0; stroke-linejoin: miter; stroke-miterlimit: 4; fill: rgb(67,160,71); fill-rule: nonzero; opacity: 1;"  transform=" translate(-24, -33)" d="M 37.4 43 H 10.6 c -1 0 -1.8 -0.7 -2 -1.6 L 5 23 h 38 l -3.7 18.4 C 39.1 42.3 38.3 43 37.4 43 z" stroke-linecap="round" />
</g>
<g transform="matrix(4.17 0 0 4.17 200 191.67)" id="Layer_1"  >
<path style="stroke: none; stroke-width: 1; stroke-dasharray: none; stroke-linecap: butt; stroke-dashoffset: 0; stroke-linejoin: miter; stroke-miterlimit: 4; fill: rgb(102,187,106); fill-rule: nonzero; opacity: 1;"  transform=" translate(-24, -22)" d="M 43 25 H 5 c -1.1 0 -2 -0.9 -2 -2 v -2 c 0 -1.1 0.9 -2 2 -2 h 38 c 1.1 0 2 0.9 2 2 v 2 C 45 24.1 44.1 25 43 25 z" stroke-linecap="round" />
</g>
<g transform="matrix(4.17 0 0 4.17 200 241.67)" id="Layer_1"  >
<path style="stroke: none; stroke-width: 1; stroke-dasharray: none; stroke-linecap: butt; stroke-dashoffset: 0; stroke-linejoin: miter; stroke-miterlimit: 4; fill: rgb(27,94,32); fill-rule: nonzero; opacity: 1;"  transform=" translate(-24, -34)" d="M 24 28 L 24 28 c -0.552 0 -1 0.448 -1 1 v 10 c 0 0.6 0.4 1 1 1 s 1 -0.4 1 -1 V 29 C 25 28.448 24.552 28 24 28 z" stroke-linecap="round" />
</g>
<g transform="matrix(4.17 0 0 4.17 216.67 241.67)" id="Layer_1"  >
<path style="stroke: none; stroke-width: 1; stroke-dasharray: none; stroke-linecap: butt; stroke-dashoffset: 0; stroke-linejoin: miter; stroke-miterlimit: 4; fill: rgb(27,94,32); fill-rule: nonzero; opacity: 1;"  transform=" translate(-28, -34)" d="M 28 28 L 28 28 c -0.552 0 -1 0.448 -1 1 v 10 c 0 0.6 0.4 1 1 1 s 1 -0.4 1 -1 V 29 C 29 28.448 28.552 28 28 28 z" stroke-linecap="round" />
</g>
<g transform="matrix(4.17 0 0 4.17 233.33 241.67)" id="Layer_1"  >
<path style="stroke: none; stroke-width: 1; stroke-dasharray: none; stroke-linecap: butt; stroke-dashoffset: 0; stroke-linejoin: miter; stroke-miterlimit: 4; fill: rgb(27,94,32); fill-rule: nonzero; opacity: 1;"  transform=" translate(-32, -34)" d="M 32 28 L 32 28 c -0.552 0 -1 0.448 -1 1 v 10 c 0 0.6 0.4 1 1 1 c 0.6 0 1 -0.4 1 -1 V 29 C 33 28.448 32.552 28 32 28 z" stroke-linecap="round" />
</g>
<g transform="matrix(4.17 0 0 4.17 166.67 241.67)" id="Layer_1"  >
<path style="stroke: none; stroke-width: 1; stroke-dasharray: none; stroke-linecap: butt; stroke-dashoffset: 0; stroke-linejoin: miter; stroke-miterlimit: 4; fill: rgb(27,94,32); fill-rule: nonzero; opacity: 1;"  transform=" translate(-16, -34)" d="M 16 28 L 16 28 c -0.552 0 -1 0.448 -1 1 v 10 c 0 0.6 0.4 1 1 1 s 1 -0.4 1 -1 V 29 C 17 28.448 16.552 28 16 28 z" stroke-linecap="round" />
</g>
<g transform="matrix(4.17 0 0 4.17 183.33 241.67)" id="Layer_1"  >
<path style="stroke: none; stroke-width: 1; stroke-dasharray: none; stroke-linecap: butt; stroke-dashoffset: 0; stroke-linejoin: miter; stroke-miterlimit: 4; fill: rgb(27,94,32); fill-rule: nonzero; opacity: 1;"  transform=" translate(-20, -34)" d="M 20 28 L 20 28 c -0.552 0 -1 0.448 -1 1 v 10 c 0 0.6 0.4 1 1 1 s 1 -0.4 1 -1 V 29 C 21 28.448 20.552 28 20 28 z" stroke-linecap="round" />
</g>
<g transform="matrix(4.17 0 0 4.17 200 133.33)" id="Layer_1"  >
<path style="stroke: none; stroke-width: 1; stroke-dasharray: none; stroke-linecap: butt; stroke-dashoffset: 0; stroke-linejoin: miter; stroke-miterlimit: 4; fill: rgb(102,187,106); fill-rule: nonzero; opacity: 1;"  transform=" translate(-24, -8)" d="M 29 11 H 19 c -0.552 0 -1 -0.448 -1 -1 V 6 c 0 -0.552 0.448 -1 1 -1 h 10 c 0.552 0 1 0.448 1 1 v 4 C 30 10.552 29.552 11 29 11 z" stroke-linecap="round" />
</g>
</svg>